<svg xmlns="http://www.w3.org/2000/svg" viewBox="0 0 2233.8 1576.57"><defs><style>.cls-1{fill:#5fb0be;}.cls-2{fill:#d94728;}.cls-3{fill:#fff;}</style></defs><title>Asset 19DoctorBag</title><g id="Layer_2" data-name="Layer 2"><g id="Layer_1-2" data-name="Layer 1"><rect class="cls-1" y="287.97" width="2233.8" height="1288.6" rx="253.32"/><path class="cls-1" d="M1412.32,0H821.48c-44.93,0-81.7,35.39-81.7,78.65V340.23c0,43.26,36.77,78.66,81.7,78.66h30.26a12.48,12.48,0,0,0,12.7-12.23V184c0-35.74,30.38-65,67.5-65h369.91c37.13,0,67.51,29.25,67.51,65V406.66a12.48,12.48,0,0,0,12.7,12.23h30.26c44.93,0,81.69-35.4,81.69-78.66V78.65C1494,35.39,1457.25,0,1412.32,0Z"/><rect class="cls-2" x="1073.02" y="420.52" width="87.75" height="295.17" rx="10.57"/><rect class="cls-2" x="1073.02" y="420.52" width="87.75" height="295.17" rx="10.57" transform="translate(1685.01 -548.79) rotate(90)"/><rect class="cls-3" x="156.96" y="420.52" width="578.48" height="1026.77" rx="94.9"/><rect class="cls-3" x="1497.36" y="421.89" width="578.48" height="1026.77" rx="94.9"/><rect class="cls-3" x="827.66" y="816.53" width="578.48" height="632.13" rx="74.46"/></g></g></svg>